HIERARCHY
ROOT Hips
{
	OFFSET 0.000000 0.000000 0.000000
	CHANNELS 6 Xposition Yposition Zposition Xrotation Yrotation Zrotation
	JOINT LeftUpLeg_virtual
	{
		OFFSET 0.000000 0.000000 0.000000
		CHANNELS 3 Xrotation Yrotation Zrotation
		JOINT LeftUpLeg
		{
			OFFSET 10.205400 -3.823500 0.155100
			CHANNELS 3 Xrotation Yrotation Zrotation
			JOINT LeftLeg
			{
				OFFSET 0.708757 -12.982077 0.567790
				CHANNELS 3 Xrotation Yrotation Zrotation
				JOINT LeftFoot
				{
					OFFSET -0.708756 -10.717838 -2.184338
					CHANNELS 3 Xrotation Yrotation Zrotation
					JOINT LeftToeBase
					{
						OFFSET 0.108149 -7.191104 7.560241
						CHANNELS 3 Xrotation Yrotation Zrotation
						JOINT LeftToe_End
						{
							OFFSET 0.070230 0.081724 4.490308
							CHANNELS 3 Xrotation Yrotation Zrotation
							End Site
							{
								OFFSET 0 0 0
							}
						}
					}
				}
			}
		}
	}
	JOINT RightUpLeg_virtual
	{
		OFFSET 0.000000 0.000000 0.000000
		CHANNELS 3 Xrotation Yrotation Zrotation
		JOINT RightUpLeg
		{
			OFFSET -10.205400 -3.823500 0.005500
			CHANNELS 3 Xrotation Yrotation Zrotation
			JOINT RightLeg
			{
				OFFSET -0.708756 -12.982134 0.610632
				CHANNELS 3 Xrotation Yrotation Zrotation
				JOINT RightFoot
				{
					OFFSET 0.708754 -10.717769 -1.945823
					CHANNELS 3 Xrotation Yrotation Zrotation
					JOINT RightToeBase
					{
						OFFSET -0.108140 -7.191069 7.372968
						CHANNELS 3 Xrotation Yrotation Zrotation
						JOINT RightToe_End
						{
							OFFSET -0.070227 0.081735 4.479403
							CHANNELS 3 Xrotation Yrotation Zrotation
							End Site
							{
								OFFSET 0 0 0
							}
						}
					}
				}
			}
		}
	}
	JOINT Spine_virtual
	{
		OFFSET 0.000000 0.000000 0.000000
		CHANNELS 3 Xrotation Yrotation Zrotation
		JOINT Spine
		{
			OFFSET 0.000000 6.876099 0.125700
			CHANNELS 3 Xrotation Yrotation Zrotation
			JOINT Spine1
			{
				OFFSET 0.000000 5.730043 0.104720
				CHANNELS 3 Xrotation Yrotation Zrotation
				JOINT Spine1_split
				{
					OFFSET 0.000000 5.730043 0.104720
					CHANNELS 3 Xrotation Yrotation Zrotation
					JOINT Spine2
					{
						OFFSET 0.000000 5.730043 0.104720
						CHANNELS 3 Xrotation Yrotation Zrotation
						JOINT Neck_virtual
						{
							OFFSET 0.000000 0.000000 0.000000
							CHANNELS 3 Xrotation Yrotation Zrotation
							JOINT Neck
							{
								OFFSET 0.000000 10.314075 0.188496
								CHANNELS 3 Xrotation Yrotation Zrotation
								JOINT Head
								{
									OFFSET 0.000000 7.643700 -2.377400
									CHANNELS 3 Xrotation Yrotation Zrotation
									JOINT HeadTop_End
									{
										OFFSET 0.000000 43.788605 -13.619600
										CHANNELS 3 Xrotation Yrotation Zrotation
										End Site
										{
											OFFSET 0 0 0
										}
									}
								}
							}
						}
						JOINT LeftShoulder_virtual
						{
							OFFSET 0.000000 0.000000 0.000000
							CHANNELS 3 Xrotation Yrotation Zrotation
							JOINT LeftShoulder
							{
								OFFSET 2.196100 4.412489 0.087492
								CHANNELS 3 Xrotation Yrotation Zrotation
								JOINT LeftShoulder_split
								{
									OFFSET 2.196100 4.412489 0.087492
									CHANNELS 3 Xrotation Yrotation Zrotation
									JOINT LeftArm
									{
										OFFSET 8.771219 -2.981674 -0.026999
										CHANNELS 3 Xrotation Yrotation Zrotation
										JOINT LeftForeArm
										{
											OFFSET 8.512804 0.000000 -0.000000
											CHANNELS 3 Xrotation Yrotation Zrotation
											JOINT LeftHand
											{
												OFFSET 18.484802 0.000000 -0.000000
												CHANNELS 3 Xrotation Yrotation Zrotation
												End Site
												{
													OFFSET 0 0 0
												}
											}
										}
									}
								}
							}
						}
						JOINT RightShoulder_virtual
						{
							OFFSET 0.000000 0.000000 0.000000
							CHANNELS 3 Xrotation Yrotation Zrotation
							JOINT RightShoulder
							{
								OFFSET -2.196100 4.412496 0.070690
								CHANNELS 3 Xrotation Yrotation Zrotation
								JOINT RightShoulder_split
								{
									OFFSET -2.196100 4.412496 0.070690
									CHANNELS 3 Xrotation Yrotation Zrotation
									JOINT RightArm
									{
										OFFSET -8.771282 -2.981682 -0.094208
										CHANNELS 3 Xrotation Yrotation Zrotation
										JOINT RightForeArm
										{
											OFFSET -8.494598 0.000000 0.000000
											CHANNELS 3 Xrotation Yrotation Zrotation
											JOINT RightHand
											{
												OFFSET -18.483803 0.000000 0.000001
												CHANNELS 3 Xrotation Yrotation Zrotation
												End Site
												{
													OFFSET 0 0 0
												}
											}
										}
									}
								}
							}
						}
					}
				}
			}
		}
	}
}
MOTION
Frames: 8
Frame Time: 0.03333333
-0.268896 28.598198 -0.034538 0.000000 0.000000 0.000000 3.000806 -58.172202 6.374425 -37.008069 4.712527 33.451046 48.226825 -12.868898 -11.599430 -12.628875 -0.311791 -14.432980 -0.327625 1.238411 0.837241 0.000000 0.000000 0.000000 3.000806 -58.172202 6.374425 -31.640954 -2.217354 -36.234427 60.434422 9.478173 -7.241524 -30.093270 -4.063179 28.285840 -0.322747 -0.997410 -0.837178 0.000000 0.000000 0.000000 3.000806 -58.172202 6.374425 11.189901 0.063074 -2.592187 8.434588 0.027703 -5.592321 0.000000 0.000000 0.000000 0.000000 0.000000 0.000000 8.457054 0.027853 -5.591869 -21.555652 25.063367 12.062567 -0.294038 25.465749 -3.208974 0.000000 0.000000 0.000000 8.457054 0.027853 -5.591869 -6.221675 -11.503862 -4.023816 0.000000 0.000000 0.000000 -23.062185 9.568558 -36.639607 0.046109 -43.169128 -0.011151 0.000000 0.000000 0.000000 8.457054 0.027853 -5.591869 -5.488235 10.658262 2.466518 0.000000 0.000000 0.000000 -41.473814 -26.755569 30.079088 -155.044570 68.137045 156.691561 0.000000 0.000000 0.000000 
-0.286983 28.597893 -0.001200 0.000000 0.000000 0.000000 3.132027 -58.259307 6.440910 -37.071774 4.524391 33.436122 48.626330 -12.770424 -11.508800 -12.743641 -0.276789 -14.506900 -0.389465 1.237558 0.710764 0.000000 0.000000 0.000000 3.132027 -58.259307 6.440910 -31.594669 -1.986746 -36.016824 60.455835 9.243123 -7.392744 -29.951025 -4.122724 28.524851 -0.427034 -0.995841 -0.791700 0.000000 0.000000 0.000000 3.132027 -58.259307 6.440910 11.103470 0.093384 -2.555470 8.263428 0.094334 -5.514618 0.000000 0.000000 0.000000 0.000000 0.000000 0.000000 8.285891 0.094492 -5.514157 -21.429170 24.538180 11.838495 -0.484132 24.969425 -3.032913 0.000000 0.000000 0.000000 8.285891 0.094492 -5.514157 -5.880236 -11.203447 -4.136704 0.000000 0.000000 0.000000 -23.070912 10.188977 -36.902549 -0.778791 -43.644024 -0.618950 0.000000 0.000000 0.000000 8.285891 0.094492 -5.514157 -5.152132 10.691565 2.516016 0.000000 0.000000 0.000000 -41.675352 -27.395460 29.700367 -149.245057 66.526220 150.903631 0.000000 0.000000 0.000000 
-0.308810 28.576176 0.038881 0.000000 0.000000 0.000000 3.375449 -58.334720 6.629056 -37.239810 4.243304 33.339745 49.230682 -12.615935 -11.371541 -12.939120 -0.226788 -14.550021 -0.467801 1.236399 0.551788 0.000000 0.000000 0.000000 3.375449 -58.334720 6.629056 -31.635117 -1.614374 -35.803667 60.678226 8.950399 -7.575575 -29.861966 -4.209691 28.764177 -0.594458 -0.993429 -0.710907 0.000000 0.000000 0.000000 3.375449 -58.334720 6.629056 11.072732 0.132257 -2.523266 8.204044 0.173832 -5.448619 0.000000 0.000000 0.000000 0.000000 0.000000 0.000000 8.226515 0.173986 -5.448156 -21.737106 23.674412 11.523827 -0.392240 24.201022 -2.926327 0.000000 0.000000 0.000000 8.226515 0.173986 -5.448156 -5.861946 -10.946076 -4.243512 0.000000 0.000000 0.000000 -22.790248 11.203503 -37.079400 -2.568622 -44.597488 -2.588002 0.000000 0.000000 0.000000 8.226515 0.173986 -5.448156 -5.219759 10.572311 2.900603 0.000000 0.000000 0.000000 -41.870695 -28.266528 29.056096 -138.768366 62.896944 140.499805 0.000000 0.000000 0.000000 
-0.349622 28.453770 0.110588 0.000000 0.000000 0.000000 4.276473 -58.269081 7.496153 -38.072383 3.424923 32.900891 50.805652 -12.328486 -11.030087 -13.400251 -0.049384 -14.692328 -0.691270 1.234346 0.179503 0.000000 0.000000 0.000000 4.276473 -58.269081 7.496153 -32.139114 -0.538730 -35.729942 61.866679 8.530635 -7.830241 -29.972383 -4.498232 29.213481 -0.989656 -0.988025 -0.368826 0.000000 0.000000 0.000000 4.276473 -58.269081 7.496153 10.959770 0.214122 -2.462902 7.982656 0.345539 -5.338391 0.000000 0.000000 0.000000 0.000000 0.000000 0.000000 8.005117 0.345668 -5.337919 -22.240452 21.206248 10.427362 -2.681744 22.078457 -1.496621 0.000000 0.000000 0.000000 8.005117 0.345668 -5.337919 -5.789416 -10.906041 -4.641793 0.000000 0.000000 0.000000 -21.919137 12.280457 -36.434644 -4.904238 -45.766027 -6.428679 0.000000 0.000000 0.000000 8.005117 0.345668 -5.337919 -5.486561 9.961639 4.839502 0.000000 0.000000 0.000000 -42.348139 -30.087345 26.396250 -123.186532 54.213800 124.248490 0.000000 0.000000 0.000000 
-0.381021 28.144501 0.198795 0.000000 0.000000 0.000000 5.889819 -57.524611 9.144888 -40.123898 1.982705 31.807344 53.510977 -12.118940 -10.435976 -14.501883 0.235254 -14.642906 -0.788213 1.234336 0.059158 0.000000 0.000000 0.000000 5.889819 -57.524611 9.144888 -32.919282 0.811839 -36.341804 64.279218 8.089309 -7.822347 -31.449678 -5.212534 29.498767 -0.829258 -0.990637 0.248266 0.000000 0.000000 0.000000 5.889819 -57.524611 9.144888 10.719068 0.250105 -2.385350 7.504365 0.450214 -5.210278 0.000000 0.000000 0.000000 0.000000 0.000000 0.000000 7.526828 0.450374 -5.209824 -22.339256 16.639271 8.418790 -8.546405 18.025228 1.581522 0.000000 0.000000 0.000000 7.526828 0.450374 -5.209824 -5.634157 -11.237062 -5.559502 0.000000 0.000000 0.000000 -20.515206 12.770361 -34.844644 -5.912259 -46.732940 -10.381391 0.000000 0.000000 0.000000 7.526828 0.450374 -5.209824 -5.902310 9.350182 9.352161 0.000000 0.000000 0.000000 -44.309141 -32.041930 18.078233 -104.841771 36.379193 107.426001 0.000000 0.000000 0.000000 
-0.388386 27.684719 0.270834 0.000000 0.000000 0.000000 6.835736 -55.786960 10.279916 -42.985416 0.199556 30.100849 56.745860 -12.302112 -9.640179 -15.836400 0.484532 -14.231032 -0.618123 1.235758 0.425305 0.000000 0.000000 0.000000 6.835736 -55.786960 10.279916 -32.569030 1.294355 -37.739930 67.078455 7.449184 -7.490137 -34.978188 -6.528911 29.547928 -0.288193 -0.997981 0.023300 0.000000 0.000000 0.000000 6.835736 -55.786960 10.279916 10.483643 0.120208 -2.289669 7.028201 0.270172 -5.042150 0.000000 0.000000 0.000000 0.000000 0.000000 0.000000 7.050676 0.270290 -5.041683 -22.550011 11.200423 6.626656 -13.766257 13.168359 3.810388 0.000000 0.000000 0.000000 7.050676 0.270290 -5.041683 -5.487811 -11.854629 -6.928105 0.000000 0.000000 0.000000 -19.238999 12.351345 -33.658110 -3.897293 -47.259619 -11.284237 0.000000 0.000000 0.000000 7.050676 0.270290 -5.041683 -5.613105 10.231917 11.249343 0.000000 0.000000 0.000000 -47.142416 -37.421008 11.054680 -92.155801 29.637137 97.929920 0.000000 0.000000 0.000000 
-0.408976 27.049782 0.313105 0.000000 0.000000 0.000000 6.731872 -53.422379 10.724710 -46.335467 -1.832052 28.078797 60.407115 -12.959318 -8.877407 -16.567997 0.663294 -13.955407 -0.559745 1.236289 0.557370 0.000000 0.000000 0.000000 6.731872 -53.422379 10.724710 -31.288127 1.674846 -40.015401 70.790191 7.310898 -7.030439 -38.990565 -8.394518 30.158922 -0.117545 -1.000358 -0.353618 0.000000 0.000000 0.000000 6.731872 -53.422379 10.724710 10.317802 -0.016787 -2.100138 6.691994 0.108372 -4.698430 0.000000 0.000000 0.000000 0.000000 0.000000 0.000000 6.714476 0.108459 -4.697949 -23.785842 6.304824 4.060611 -15.946187 8.132666 4.677670 0.000000 0.000000 0.000000 6.714476 0.108459 -4.697949 -5.401248 -12.510080 -8.373552 0.000000 0.000000 0.000000 -18.808802 11.488320 -34.759242 -0.083638 -47.389078 -8.512250 0.000000 0.000000 0.000000 6.714476 0.108459 -4.697949 -5.423460 11.206754 12.804295 0.000000 0.000000 0.000000 -47.075269 -40.863123 9.162473 -82.230082 29.366788 89.326006 0.000000 0.000000 0.000000 
-0.434543 26.355789 0.383146 0.000000 0.000000 0.000000 6.672144 -51.240936 11.561540 -49.490222 -3.640415 25.863269 64.159136 -12.019561 -8.269599 -17.222887 -0.485839 -14.282234 -0.590241 1.226817 0.520846 0.000000 0.000000 0.000000 6.672144 -51.240936 11.561540 -30.321334 2.964815 -42.467838 75.813426 7.107485 -6.653841 -42.911640 -10.061046 30.006018 -0.501591 -0.999777 0.384315 0.000000 0.000000 0.000000 6.672144 -51.240936 11.561540 10.170785 0.026447 -1.839049 6.402555 0.296499 -4.263985 0.000000 0.000000 0.000000 0.000000 0.000000 0.000000 6.425020 0.296569 -4.263500 -26.271792 2.517120 0.199516 -15.715338 2.961147 5.495067 0.000000 0.000000 0.000000 6.425020 0.296569 -4.263500 -5.307543 -12.970788 -9.629492 0.000000 0.000000 0.000000 -19.203625 10.770899 -38.185627 2.337924 -47.628644 -5.085831 0.000000 0.000000 0.000000 6.425020 0.296569 -4.263500 -5.383896 12.224024 14.650208 0.000000 0.000000 0.000000 -48.407231 -41.114016 6.618738 -71.467951 27.893572 79.782606 0.000000 0.000000 0.000000 
